<?xml version="1.0" encoding="UTF-8"?>
<svg xmlns="http://www.w3.org/2000/svg" width="600" height="180" viewBox="0 0 600 180" role="img" aria-labelledby="title desc">
  <title id="title">Lehigh Valley Legal</title>
  <desc id="desc">River and valley line wordmark for Lehigh Valley Legal.</desc>
  <defs>
    <linearGradient id="river" x1="0" x2="1" y1="0" y2="1">
      <stop offset="0" stop-color="#1f6f78"/>
      <stop offset="1" stop-color="#2f8f7a"/>
    </linearGradient>
  </defs>
  <rect width="600" height="180" fill="none"/>
  <g transform="translate(24 29)">
    <path d="M5 92 C36 48, 75 35, 118 54 C153 70, 188 67, 222 42" fill="none" stroke="#172536" stroke-width="9" stroke-linecap="round"/>
    <path d="M9 106 C44 76, 86 72, 126 88 C164 103, 194 91, 226 67" fill="none" stroke="url(#river)" stroke-width="7" stroke-linecap="round"/>
    <path d="M22 120 C60 108, 92 109, 131 122 C170 135, 205 126, 237 102" fill="none" stroke="#82929b" stroke-width="4" stroke-linecap="round" opacity="0.92"/>
  </g>
  <g fill="#172536">
    <text x="282" y="78" font-family="Georgia, 'Times New Roman', serif" font-size="43" font-weight="700" letter-spacing="0">Lehigh Valley</text>
    <text x="284" y="120" font-family="Inter, Arial, sans-serif" font-size="30" font-weight="700" letter-spacing="5">LEGAL</text>
  </g>
  <line x1="284" y1="132" x2="558" y2="132" stroke="#2f8f7a" stroke-width="3" stroke-linecap="round"/>
</svg>
